<svg width="813" height="638" viewBox="0 0 813 638" fill="none" xmlns="http://www.w3.org/2000/svg">
<path opacity="0.24" d="M93.2126 172.471C68.8344 224.894 31.2232 271.168 11.5764 325.439C-8.0705 379.709 -4.22463 449.151 42.5205 484.075C91.9602 521.01 164.399 503.549 221.683 527.236C266.29 545.685 296.892 587.061 339.336 609.901C360.425 621.289 383.918 627.704 407.651 631.753C531.339 652.872 659.998 608.344 759.599 533.385C774.148 522.44 788.443 510.609 798.146 495.324C822.904 456.339 812.227 405.168 793.605 363.007C774.983 320.845 748.972 280.367 744.355 234.637C740.003 191.439 754.235 142.913 728.655 107.483C700.089 67.9156 639.719 69.7503 592.025 82.7454C544.331 95.7405 493.652 115.644 447.425 98.4737C376.795 72.1798 324.496 -2.31109 239.913 0.0551009C150.736 2.56048 122.866 108.672 93.2126 172.471Z" fill="url(#paint0_linear_58_14334)"/>
<path d="M414.989 189.882C415.315 194.841 414.142 199.783 411.624 204.067C406.361 213.582 395.595 220.643 384.703 223.464C368.813 227.526 352.051 225.54 335.794 227.716C320.634 229.766 306.19 235.434 293.679 244.241C280.156 253.807 265.847 267.752 249.806 263.222C236.181 259.426 229.856 240.268 238.547 229.057C217.128 226.536 195.42 229.443 175.419 237.51C167.423 240.736 159.58 244.849 150.99 245.406C142.4 245.962 132.697 241.761 130.394 233.486C127.763 224.16 135.568 214.873 144.31 210.583C148.817 208.523 153.468 206.794 158.226 205.408C162.733 204.021 167.07 202.132 171.155 199.777C173.227 198.493 175.094 196.907 176.696 195.07C181.757 189.389 184.287 181.493 180.34 175.293C178.161 172.17 175.067 169.8 171.484 168.51C160.301 164.031 147.511 166.106 135.872 163.006C124.233 159.906 113.341 146.557 120.033 136.434C125.954 127.665 138.187 127.944 151.85 130.107C166.677 132.41 183.123 136.991 194.863 134.587C201.834 133.157 207.147 129.272 209.5 121.009C213.612 106.509 188.677 85.6684 210.285 74.4447C224.201 67.2449 239.47 86.3643 254.158 80.1768C264.544 75.786 266.025 61.9305 266.442 50.6563C266.86 39.382 270.237 25.3494 281.307 23.0844C289.441 21.4268 297.424 28.0698 300.283 35.877C301.196 38.3921 301.771 41.0175 301.991 43.6842C302.422 49.3216 302.248 54.9889 301.472 60.5892C301.055 64.7016 300.688 69.0417 302.484 72.6986C305.445 78.6963 311.859 79.949 318.463 78.4179C324.201 77.0421 329.451 74.1186 333.644 69.9654C342.221 61.2852 350.95 49.3276 363.146 50.5297C371.508 51.3522 376.682 57.9193 378.985 66.1441C380.882 73.0717 380.96 80.3718 379.212 87.3386C375.341 102.118 366.928 116.986 370.951 131.727C377.479 155.844 413.268 165.031 414.989 189.882Z" fill="url(#paint1_linear_58_14334)"/>
<path d="M414.989 189.882C415.315 194.841 414.142 199.783 411.624 204.067C408.521 205.344 405.306 206.331 402.021 207.015C386.132 210.343 369.369 208.723 353.113 210.482C338.3 212.05 323.966 216.641 310.998 223.971C297.462 231.727 283.166 243.09 267.176 239.484C253.55 236.396 247.174 220.782 255.79 211.646C234.502 209.571 213.015 211.915 192.674 218.53C184.73 221.162 176.835 224.489 168.245 224.945C159.655 225.4 150.231 228.969 147.915 222.262C145.664 215.758 151.015 209.331 158.036 205.459C159.24 204.725 160.511 204.106 161.831 203.611C167.05 201.23 172.028 198.353 176.696 195.019C180.499 192.371 184.453 189.946 188.537 187.756C196.761 183.606 202.808 174.496 197.684 167.802C195.698 165.17 192.333 163.411 188.828 162.26C177.607 158.616 164.868 160.324 153.229 157.78C141.59 155.237 130.647 144.38 137.339 136.269C140.527 132.398 145.651 130.689 151.837 130.272C166.664 132.575 183.11 137.155 194.85 134.751C209.854 136.371 222.796 135.346 226.857 123.705C230.918 112.063 205.983 94.9813 227.591 85.8328C241.507 79.9743 256.827 95.538 271.464 90.502C281.901 86.8957 283.331 75.6342 283.799 66.4604C284.267 57.2866 287.569 45.7214 298.6 43.9246C299.729 43.7406 300.876 43.6939 302.016 43.7854C302.431 49.3901 302.249 55.0231 301.472 60.5892C301.055 64.7016 300.688 69.0417 302.484 72.6986C305.444 78.6963 311.859 79.949 318.462 78.4179C318.363 80.4671 318.845 82.5026 319.854 84.2891C325.256 93.1465 342.385 89.1354 350.975 82.0242C359.198 75.2419 367.51 66.0049 378.959 66.1441C380.856 73.0717 380.935 80.3718 379.187 87.3386C375.315 102.118 366.903 116.986 370.926 131.727C377.479 155.844 413.268 165.031 414.989 189.882Z" fill="url(#paint2_linear_58_14334)"/>
<path d="M215.522 48.2774C212.093 45.4051 208.981 41.2927 209.652 36.8893C209.831 35.666 210.293 34.5014 211.001 33.4881C211.709 32.4747 212.644 31.6407 213.731 31.0522C214.818 30.4637 216.027 30.137 217.263 30.0982C218.498 30.0593 219.726 30.3093 220.848 30.8283C224.909 32.6883 226.68 37.6232 226.693 42.1025C226.693 44.4687 226.87 51.7571 224.314 52.9339C221.759 54.1106 217.23 49.7072 215.522 48.2774Z" fill="url(#paint3_linear_58_14334)"/>
<path d="M124.018 176.761C122.427 177.446 121.171 178.733 120.526 180.341C117.996 185.403 118.426 192.438 122.993 195.791C130.053 200.967 143.235 199.752 144.234 189.465C145.107 180.797 131.419 174.369 124.018 176.761Z" fill="url(#paint4_linear_58_14334)"/>
<path d="M186.147 38.104C185.856 35.7758 183.806 34.1182 181.909 32.7263C178.619 30.3095 174.027 27.8674 170.801 30.3854C168.625 32.081 168.372 35.4468 169.46 37.9775C170.742 40.4498 172.551 42.6098 174.761 44.3042C176.283 45.8724 178.144 47.0713 180.201 47.8092C182.313 48.366 184.919 47.6953 185.856 45.7341C186.792 43.7728 186.374 40.5968 188.512 40.2045" fill="url(#paint5_linear_58_14334)"/>
<path d="M128.433 95.867C127.845 95.2517 127.106 94.8004 126.29 94.5579C125.473 94.3154 124.608 94.29 123.779 94.4842C122.95 94.6784 122.186 95.0855 121.562 95.6653C120.939 96.2451 120.477 96.9776 120.223 97.7904C119.489 100.068 120.514 102.561 121.981 104.446C122.942 105.844 124.39 106.833 126.042 107.217C128.927 107.635 131.495 104.94 132.127 102.156C132.526 100.613 132.341 98.9774 131.609 97.5626C131.249 96.878 130.699 96.3113 130.027 95.93C129.354 95.5486 128.585 95.3686 127.813 95.4115" fill="url(#paint6_linear_58_14334)"/>
<path d="M184.919 61.7787C184.52 61.3666 184.022 61.0643 183.472 60.9009C182.922 60.7375 182.339 60.7184 181.78 60.8455C181.221 60.9727 180.704 61.2417 180.278 61.6268C179.853 62.0118 179.534 62.4999 179.353 63.044C179.173 63.84 179.189 64.6677 179.398 65.4565C179.607 66.2453 180.004 66.9717 180.555 67.5739C181.206 68.5308 182.196 69.2047 183.325 69.4593C185.286 69.7503 187.032 67.9156 187.462 65.9796C187.741 64.9303 187.615 63.8143 187.108 62.8542C186.85 62.3846 186.462 61.9996 185.991 61.7459C185.519 61.4921 184.985 61.3805 184.451 61.4244" fill="url(#paint7_linear_58_14334)"/>
<path opacity="0.24" d="M303.484 475.85C345.042 473.231 393.027 476.255 418.607 509.141C428.551 521.934 433.864 538.067 445.01 549.835C466.807 572.89 502.989 572.421 534.642 570.283C567.913 568.043 604.437 564.361 627.588 540.345C658.292 508.496 654.711 451.176 691.057 425.958C705.669 415.835 724.064 413.152 740.269 405.851C756.475 398.55 771.897 382.822 768.506 365.36C764.787 346.114 741.939 338.219 722.773 334.372C584.516 306.81 442.371 304.892 303.421 328.716C267.442 334.903 230.197 343.546 202.214 366.993C179.518 385.973 153.078 434.246 178.86 460.008C205.288 486.454 270.857 477.913 303.484 475.85Z" fill="url(#paint8_linear_58_14334)"/>
<path d="M272.767 286.997C510.604 230.323 629.08 347.38 640.263 431.639C649.612 502.043 615.822 600.069 491.172 568.828C396.999 545.216 477.509 473.636 396.012 456.743C334.896 444.09 213.156 458.743 162.11 429.311C156.632 426.147 34.9681 343.66 272.767 286.997Z" fill="url(#paint9_linear_58_14334)"/>
<path d="M272.767 286.997C510.604 230.323 629.08 347.38 640.263 431.639C649.613 502.043 615.822 600.069 491.173 568.828C396.999 545.216 477.51 473.636 396.012 456.743C334.023 443.875 209.513 459.173 159.883 427.97C155.354 425.122 34.9682 343.66 272.767 286.997Z" fill="url(#paint10_linear_58_14334)"/>
<path d="M148.27 397.335C148.27 397.335 34.968 322.781 272.767 266.119C510.566 209.457 629.08 326.514 640.263 410.761C649.612 481.165 615.822 579.204 491.172 547.949C396.999 524.338 477.509 452.758 396.012 435.865C328.33 421.833 186.298 441.332 148.27 397.335Z" fill="url(#paint11_linear_58_14334)"/>
<path d="M276.677 320.921C276.834 323.562 276.171 326.188 274.779 328.437C269.643 337.763 254.12 345.229 235.384 346.342C215.737 347.607 198.696 341.42 193.231 332.044C192.122 330.25 191.466 328.213 191.321 326.109C190.587 313.456 209.032 302.068 232.626 300.688C256.22 299.309 275.892 308.318 276.677 320.921Z" fill="url(#paint12_linear_58_14334)"/>
<path d="M407.841 291.097C407.993 293.757 407.345 296.401 405.981 298.689C400.794 308.015 385.335 315.417 366.586 316.531C346.952 317.796 329.898 311.608 324.446 302.232C323.307 300.457 322.649 298.416 322.536 296.31C321.789 283.657 340.247 272.269 363.79 270.877C387.333 269.485 407.094 278.494 407.841 291.097Z" fill="url(#paint13_linear_58_14334)"/>
<path d="M376.075 350.733C376.22 353.379 375.554 356.006 374.165 358.262C369.028 367.575 353.518 375.04 334.77 376.154C315.123 377.419 298.082 371.231 292.617 361.855C291.5 360.066 290.847 358.026 290.719 355.921C289.973 343.267 308.43 331.879 332.012 330.5C355.593 329.121 375.278 338.13 376.075 350.733Z" fill="url(#paint14_linear_58_14334)"/>
<path d="M519.194 323.401C519.347 326.048 518.68 328.677 517.284 330.93C512.148 340.243 496.638 347.721 477.889 348.835C458.255 350.1 441.202 343.9 435.749 334.524C434.632 332.738 433.976 330.704 433.839 328.602C433.092 315.949 451.55 304.56 475.144 303.181C498.738 301.802 518.397 310.799 519.194 323.401Z" fill="url(#paint15_linear_58_14334)"/>
<path d="M607.144 379.33C607.306 381.989 606.662 384.635 605.297 386.922C600.11 396.235 584.587 403.713 565.851 404.814C546.154 406.079 529.163 399.892 523.698 390.465C522.604 388.691 521.965 386.674 521.839 384.593C521.054 371.94 539.55 360.552 563.093 359.173C586.636 357.793 606.347 366.727 607.144 379.33Z" fill="url(#paint16_linear_58_14334)"/>
<path d="M568.065 453.163C568.21 455.796 567.567 458.413 566.217 460.679C561.081 470.004 545.559 477.47 526.823 478.583C507.125 479.849 490.072 473.661 484.619 464.234C483.523 462.457 482.884 460.435 482.759 458.35C481.975 445.697 500.471 434.309 524.014 432.93C547.557 431.551 567.28 440.56 568.065 453.163Z" fill="url(#paint17_linear_58_14334)"/>
<path d="M487.378 383.037C487.523 385.683 486.857 388.31 485.467 390.566C480.331 399.879 464.821 407.357 446.123 408.458C426.426 409.723 409.372 403.536 403.92 394.109C402.822 392.337 402.187 390.319 402.073 388.238C401.276 375.584 419.784 364.297 443.315 362.817C466.845 361.337 486.581 370.434 487.378 383.037Z" fill="url(#paint18_linear_58_14334)"/>
<path d="M274.779 328.438C269.642 337.763 254.12 345.229 235.384 346.342C215.737 347.607 198.696 341.42 193.231 332.044C198.367 322.718 213.877 315.253 232.626 314.139C252.273 312.924 269.263 319.061 274.779 328.438Z" fill="url(#paint19_linear_58_14334)"/>
<path d="M405.981 298.626C400.795 307.952 385.335 315.354 366.586 316.467C346.952 317.733 329.899 311.545 324.446 302.169C329.583 292.856 345.042 285.378 363.791 284.277C383.488 283.1 400.478 289.25 405.981 298.626Z" fill="url(#paint20_linear_58_14334)"/>
<path d="M374.164 358.262C369.028 367.575 353.518 375.04 334.77 376.154C315.123 377.419 298.082 371.231 292.617 361.855C297.753 352.542 313.276 345.064 332.012 343.951C351.659 342.761 368.661 348.885 374.164 358.262Z" fill="url(#paint21_linear_58_14334)"/>
<path d="M517.284 330.93C512.148 340.243 496.638 347.721 477.889 348.835C458.255 350.1 441.202 343.9 435.749 334.524C440.885 325.211 456.395 317.745 475.144 316.632C494.791 315.404 511.781 321.554 517.284 330.93Z" fill="url(#paint22_linear_58_14334)"/>
<path d="M605.297 386.858C600.11 396.171 584.587 403.65 565.851 404.75C546.154 406.016 529.163 399.828 523.698 390.401C528.835 381.088 544.345 373.674 563.093 372.497C582.791 371.282 599.781 377.432 605.297 386.858Z" fill="url(#paint23_linear_58_14334)"/>
<path d="M566.167 460.679C561.03 470.004 545.508 477.47 526.772 478.583C507.074 479.849 490.021 473.661 484.568 464.234C489.705 454.909 505.215 447.443 523.963 446.33C543.661 445.115 560.714 451.252 566.167 460.679Z" fill="url(#paint24_linear_58_14334)"/>
<path d="M485.467 390.566C480.33 399.879 464.82 407.357 446.122 408.458C426.425 409.723 409.371 403.536 403.919 394.109C409.106 384.796 424.578 377.381 443.314 376.268C462.961 375.04 479.964 381.19 485.467 390.566Z" fill="url(#paint25_linear_58_14334)"/>
<path d="M274.779 328.438C269.642 337.763 254.12 345.229 235.384 346.342C215.737 347.607 198.696 341.42 193.231 332.044C198.367 322.718 213.877 315.253 232.626 314.139C252.273 312.924 269.263 319.061 274.779 328.438Z" fill="url(#paint26_linear_58_14334)"/>
<path d="M405.981 298.626C400.795 307.952 385.335 315.354 366.586 316.467C346.952 317.733 329.899 311.545 324.446 302.169C329.583 292.856 345.042 285.378 363.791 284.277C383.488 283.1 400.478 289.25 405.981 298.626Z" fill="url(#paint27_linear_58_14334)"/>
<path d="M374.164 358.262C369.028 367.575 353.518 375.04 334.77 376.154C315.123 377.419 298.082 371.231 292.617 361.855C297.753 352.542 313.276 345.064 332.012 343.951C351.659 342.761 368.661 348.885 374.164 358.262Z" fill="url(#paint28_linear_58_14334)"/>
<path d="M517.284 330.93C512.148 340.243 496.638 347.721 477.889 348.835C458.255 350.1 441.202 343.9 435.749 334.524C440.885 325.211 456.395 317.745 475.144 316.632C494.791 315.404 511.781 321.554 517.284 330.93Z" fill="url(#paint29_linear_58_14334)"/>
<path d="M605.297 386.858C600.11 396.171 584.587 403.65 565.851 404.75C546.154 406.016 529.163 399.828 523.698 390.401C528.835 381.088 544.345 373.674 563.093 372.497C582.791 371.282 599.781 377.432 605.297 386.858Z" fill="url(#paint30_linear_58_14334)"/>
<path d="M566.167 460.679C561.03 470.004 545.508 477.47 526.772 478.583C507.074 479.849 490.021 473.661 484.568 464.234C489.705 454.909 505.215 447.443 523.963 446.33C543.661 445.115 560.714 451.252 566.167 460.679Z" fill="url(#paint31_linear_58_14334)"/>
<path d="M485.467 390.566C480.33 399.879 464.82 407.357 446.122 408.458C426.425 409.723 409.371 403.536 403.919 394.109C409.106 384.796 424.578 377.381 443.314 376.268C462.961 375.04 479.964 381.19 485.467 390.566Z" fill="url(#paint32_linear_58_14334)"/>
<path d="M651.624 177.102C651.624 177.102 644.438 171.965 643.173 170.155C641.908 168.346 646.387 162.88 645.071 161.69C643.755 160.501 638.885 158.008 639.365 155.629C639.846 153.25 647.943 158.717 651.624 161.45C655.305 164.183 658.645 171.459 658.645 171.459C658.645 171.459 657.696 178.469 651.624 177.102Z" fill="#C58067"/>
<path d="M599.376 204.611L753.299 90.6411L807.407 49.8591C807.407 49.8591 810.013 41.4066 802.208 42.0519C794.402 42.6972 533.49 217.619 533.49 217.619L514.425 234.068L534.363 256.604L599.376 204.611Z" fill="url(#paint33_linear_58_14334)"/>
<path d="M725.645 145.127C725.645 145.127 739.561 140.888 741.003 142.293C742.445 143.697 730.034 231.677 729.402 235.435C728.769 239.193 708.085 237.965 699.305 235.435C693.458 233.674 687.791 231.365 682.378 228.538C682.378 228.538 692.499 148.164 694.359 146.911C696.219 145.658 709.869 144.558 709.869 144.558L725.645 145.127Z" fill="url(#paint34_linear_58_14334)"/>
<path d="M696.244 146.089C694.068 146.848 692.124 148.155 690.601 149.885C688.729 152.415 673.674 182.505 675.559 188.769C677.444 195.032 683.934 199.625 685.819 198.373C687.704 197.12 691.234 185.631 691.854 183.125C692.474 180.62 693.701 172.357 693.701 172.357L696.244 146.089Z" fill="url(#paint35_linear_58_14334)"/>
<path d="M675.193 358.388C675.193 358.388 672.536 368.384 671.296 369.118C670.056 369.852 665.717 367.549 663.199 365.727C660.682 363.905 661.58 360.021 661.58 360.021L662.681 356.971L675.193 358.388Z" fill="#C58067"/>
<path d="M741.799 353.555C741.799 353.555 746.645 367.17 746.151 368.524C745.658 369.877 739.826 367.904 736.663 368.106C733.5 368.308 732.375 363.5 732.375 363.5L731.261 360.476L741.799 353.555Z" fill="#C58067"/>
<path d="M726.897 137.598C726.897 137.598 725.012 145.747 725.632 148.885C726.252 152.023 721.242 160.805 714.967 160.805C708.692 160.805 708.642 150.138 708.642 148.885C708.642 147.632 710.527 147.012 709.907 143.824C709.287 140.635 726.264 133.84 726.897 137.598Z" fill="#C58067"/>
<path d="M709.97 143.874C710.139 144.607 710.135 145.369 709.96 146.1C709.784 146.831 709.441 147.512 708.958 148.088C710.334 149.467 712.174 150.283 714.12 150.378C717.915 150.378 723.519 147.24 726.037 141.597L726.163 141.28C726.517 139.218 726.897 137.598 726.897 137.598C726.264 133.84 709.338 140.736 709.97 143.874Z" fill="#B6765E"/>
<path d="M725.518 147.721C725.518 147.721 720.457 159.552 716.156 160.805C716.156 160.805 714.979 161.437 718.117 163.335C721.254 165.233 730.034 155.743 728.782 148.91C728.647 148.032 728.289 147.203 727.742 146.503C727.194 145.803 726.477 145.255 725.657 144.912L725.518 147.721Z" fill="white"/>
<path d="M709.97 145.127C709.97 145.127 708.578 153.832 712.095 159.83C712.095 159.83 710.59 162.057 709.337 162.057C708.085 162.057 704.947 154.528 706.2 148.885C706.934 145.595 709.337 144.229 709.97 145.127Z" fill="white"/>
<path d="M729.402 235.435L722.545 289.996L743.912 360.539C743.912 360.539 739.99 362.716 731.843 362.083L702.885 292.325L702.48 248.037L693.068 286.289L675.041 360.881C675.041 360.881 665.869 362.893 660.467 359.008L672.384 286.289L682.416 228.589L729.402 235.435Z" fill="#606161"/>
<path d="M706.2 119.415C706.2 119.415 704.935 135.713 706.2 140.103C707.465 144.494 711.26 148.265 714.98 148.265C718.699 148.265 724.392 145.127 726.897 139.483C729.402 133.84 730.692 120.035 730.034 118.15C729.376 116.264 725.619 110.343 715.612 111.254C708.705 111.886 706.2 116.897 706.2 119.415Z" fill="#C58067"/>
<path d="M729.275 127.45C729.087 127.739 728.836 127.982 728.541 128.162C728.247 128.341 727.916 128.453 727.573 128.488C727.229 128.523 726.883 128.481 726.558 128.365C726.233 128.249 725.938 128.062 725.695 127.817C725.236 127.282 724.905 126.65 724.728 125.968C724.55 125.286 724.53 124.572 724.67 123.882C724.847 122.477 725.315 121.123 725.404 119.719C725.432 119.56 725.427 119.398 725.39 119.241C725.353 119.085 725.284 118.937 725.189 118.808C725.063 118.704 724.917 118.628 724.76 118.584C724.603 118.541 724.439 118.531 724.278 118.555C722.38 118.555 720.154 119.352 718.838 117.998C718.041 117.201 717.813 115.796 716.751 115.467C715.878 115.151 714.954 115.746 714.132 116.176C712.156 117.181 709.873 117.398 707.743 116.783C707.517 116.743 707.301 116.659 707.108 116.535C706.915 116.412 706.748 116.251 706.617 116.062C706.478 115.735 706.438 115.374 706.503 115.024C706.638 113.898 707.014 112.815 707.606 111.847C708.198 110.88 708.991 110.052 709.932 109.419C711.535 108.465 713.318 107.853 715.169 107.622C717.299 107.242 719.449 106.992 721.609 106.875C722.761 106.722 723.934 106.87 725.012 107.306C726.017 107.958 726.921 108.755 727.694 109.672C728.959 110.811 730.49 111.621 731.489 113.012C732.248 114.139 733.905 114.113 734.487 116.808C734.981 119.225 735.31 121.667 735.752 124.097C736.195 126.526 735.158 129.032 734.652 131.448C733.602 136.396 733.602 136.396 731.805 138.092C730.725 139.019 729.52 139.79 728.225 140.382C727.773 140.687 727.218 140.801 726.682 140.698C726.176 140.521 725.973 139.661 726.479 139.433" fill="#606161"/>
<path d="M727.163 129.981C727.163 129.981 727.795 126.185 730.3 127.45C732.805 128.715 729.68 135.599 728.415 136.232C727.851 136.575 727.204 136.758 726.543 136.763" fill="#C58067"/>
<path d="M687.388 193.299L656.963 167.599C656.963 167.599 649.878 168.422 649.549 176.849C649.549 176.849 663.529 194.374 677.849 203.194C684.036 207.002 688.894 194.716 687.388 193.299Z" fill="url(#paint36_linear_58_14334)"/>
<path d="M685.819 198.335L691.399 162.057L684.213 201.258L685.819 198.335Z" fill="url(#paint37_linear_58_14334)"/>
<path d="M649.284 364.614C647.7 365.008 646.228 365.761 644.982 366.815C644.376 367.362 643.975 368.1 643.849 368.906C643.722 369.713 643.877 370.538 644.287 371.244C644.797 371.751 645.41 372.142 646.084 372.393C646.758 372.644 647.478 372.748 648.196 372.699C655.57 373.202 662.973 373.058 670.322 372.269C670.611 372.255 670.893 372.173 671.144 372.029C671.511 371.763 672.776 370.991 672.84 370.536L673.801 363.31C671.549 363.728 668.07 364.424 665.806 364.032C662.883 363.513 661.732 360.641 658.911 361.197C655.698 361.843 652.408 363.576 649.284 364.614Z" fill="url(#paint38_linear_58_14334)"/>
<path d="M722.583 366.891C720.999 367.285 719.527 368.038 718.281 369.093C717.674 369.636 717.272 370.372 717.146 371.177C717.019 371.982 717.174 372.806 717.586 373.509C718.095 374.018 718.708 374.412 719.382 374.665C720.056 374.918 720.776 375.024 721.495 374.977C728.869 375.479 736.272 375.335 743.621 374.547C743.91 374.533 744.192 374.45 744.443 374.306C744.81 374.041 747.379 372.75 747.429 372.294C747.758 369.89 745.81 366.36 745.569 364.702C743.318 365.132 741.369 366.752 739.105 366.36C736.182 365.841 735.031 362.956 732.21 363.525C728.997 364.12 725.708 365.854 722.583 366.891Z" fill="url(#paint39_linear_58_14334)"/>
<path d="M753.236 99.1063C753.982 96.3339 753.982 93.4135 753.236 90.6412C752.401 87.7817 750.945 85.1419 748.973 82.9099C747.002 82.2567 744.877 82.2257 742.888 82.8213C740.143 83.8969 744.014 88.8191 743.659 91.16C743.305 93.5008 741.053 86.9717 739.725 87.5411C738.397 88.1105 741.787 97.1071 744.317 98.2332" fill="#C58067"/>
<path d="M726.657 174.787C726.657 174.787 736.056 172.332 739.118 166.549C742.179 160.767 758.461 134.144 757.98 127.944C757.424 120.782 753.957 97.2589 753.957 97.2589C753.957 97.2589 753.578 95.3356 749.036 95.9176C744.494 96.4997 743.786 99.1063 743.786 99.1063L743.381 126.729L729.541 152.137C729.541 152.137 723.886 169.611 726.657 174.787Z" fill="url(#paint40_linear_58_14334)"/>
<path d="M526.089 223.123C522.066 223.3 519.764 227.703 516.5 230.044C514.147 231.727 511.199 232.335 508.631 233.688C506.063 235.042 503.71 237.674 504.292 240.509C504.679 241.869 505.391 243.115 506.366 244.14L521.256 262.386C522.155 263.5 523.407 264.727 524.786 264.348C525.254 264.176 525.684 263.914 526.051 263.576L543.003 249.897C544.673 248.556 546.52 246.823 546.28 244.697C546.004 243.405 545.337 242.23 544.37 241.331C539.841 236.194 534.021 223.123 526.089 223.123Z" fill="url(#paint41_linear_58_14334)"/>
<path d="M526.089 223.123C522.066 223.3 519.764 227.703 516.5 230.044C514.147 231.727 511.199 232.335 508.631 233.688C506.063 235.042 503.71 237.674 504.292 240.509C504.679 241.869 505.391 243.115 506.366 244.14L521.256 262.386C522.155 263.5 523.407 264.727 524.786 264.348C525.254 264.176 525.684 263.914 526.051 263.576L543.003 249.897C544.673 248.556 546.52 246.823 546.28 244.697C546.004 243.405 545.337 242.23 544.37 241.331C539.841 236.194 534.021 223.123 526.089 223.123Z" fill="url(#paint42_linear_58_14334)"/>
<path d="M491.856 246.519C487.997 251.087 485.328 256.528 482.292 261.703C479.256 266.878 475.65 271.927 470.906 275.622C466.162 279.317 459.912 281.468 453.979 280.38L456.952 285.795C472.016 287.374 487.242 286.129 501.85 282.126C508.277 280.367 514.792 277.925 519.485 273.268C524.179 268.612 526.608 260.995 523.724 254.997C520.839 248.999 513.767 246.026 509.365 241.078C506.683 238.054 505.898 237.649 501.774 239.256C497.915 240.814 494.506 243.31 491.856 246.519Z" fill="white"/>
<path d="M479.508 270.637C479.526 270.405 479.494 270.173 479.416 269.955C479.337 269.737 479.213 269.538 479.053 269.371C478.37 268.84 477.459 269.548 476.826 270.118C473.031 273.547 467.54 273.749 462.505 274.23C457.47 274.711 451.752 276.141 449.45 280.645C448.184 283.024 448.184 285.821 448.26 288.491C448.26 292.881 448.362 297.348 450.006 301.46C450.525 302.726 451.739 304.206 453.03 303.662C453.361 303.458 453.646 303.185 453.864 302.862C454.082 302.539 454.229 302.173 454.295 301.789C455.054 299.398 455.56 296.804 457.217 294.918C459.747 292.046 464.074 291.818 467.895 291.338C474.212 290.576 480.312 288.553 485.834 285.39C487.225 284.581 488.781 283.265 488.364 281.696C487.946 280.127 485.606 279.696 483.949 280.228C482.291 280.759 480.71 281.835 479.027 281.493C479.103 279.785 478.597 278.089 478.724 276.432C478.812 274.433 479.647 272.661 479.508 270.637Z" fill="url(#paint43_linear_58_14334)"/>
<path d="M479.508 270.637C479.526 270.405 479.494 270.173 479.416 269.955C479.337 269.737 479.213 269.538 479.053 269.371C478.37 268.84 477.459 269.548 476.826 270.118C473.031 273.547 467.54 273.749 462.505 274.23C457.47 274.711 451.752 276.141 449.45 280.645C448.184 283.024 448.184 285.821 448.26 288.491C448.26 292.881 448.362 297.348 450.006 301.46C450.525 302.726 451.739 304.206 453.03 303.662C453.361 303.458 453.646 303.185 453.864 302.862C454.082 302.539 454.229 302.173 454.295 301.789C455.054 299.398 455.56 296.804 457.217 294.918C459.747 292.046 464.074 291.818 467.895 291.338C474.212 290.576 480.312 288.553 485.834 285.39C487.225 284.581 488.781 283.265 488.364 281.696C487.946 280.127 485.606 279.696 483.949 280.228C482.291 280.759 480.71 281.835 479.027 281.493C479.103 279.785 478.597 278.089 478.724 276.432C478.812 274.433 479.647 272.661 479.508 270.637Z" fill="url(#paint44_linear_58_14334)"/>
<path d="M456.319 283.29C458.138 281.558 460.29 280.215 462.645 279.342C466.25 277.872 470.045 276.918 473.917 276.508C475.071 276.498 476.206 276.216 477.231 275.685C477.48 275.582 477.707 275.431 477.898 275.241C478.088 275.05 478.24 274.824 478.343 274.575C478.447 274.325 478.5 274.058 478.5 273.789C478.5 273.519 478.447 273.252 478.344 273.003C478.241 272.753 478.09 272.527 477.9 272.336C477.709 272.145 477.483 271.994 477.234 271.89C476.985 271.787 476.718 271.734 476.448 271.733C476.179 271.733 475.912 271.786 475.662 271.889C474.767 272.197 473.916 272.622 473.132 273.155C469.628 275.04 465.478 275.141 461.544 275.685C457.61 276.229 453.384 277.735 451.423 281.189C450.158 283.505 450.032 286.251 450.032 288.971C449.867 292.55 450.243 296.133 451.145 299.6C451.309 300.119 451.651 300.739 452.195 300.688C452.482 300.62 452.732 300.443 452.891 300.195C455.193 297.323 453.03 294.703 453.03 291.565C453.025 288.487 454.203 285.525 456.319 283.29Z" fill="url(#paint45_linear_58_14334)"/>
<path d="M456.092 307.078C454.08 307.964 453.561 310.52 453.334 312.697C452.952 316.148 452.931 319.629 453.27 323.085C453.275 323.838 453.433 324.582 453.736 325.272C454.038 325.962 454.478 326.583 455.029 327.096C455.567 327.443 456.187 327.643 456.827 327.674C457.467 327.705 458.103 327.567 458.672 327.273C459.814 326.668 460.738 325.721 461.316 324.566C463.492 320.618 461.759 317.543 461.203 313.544C460.861 311.191 459.748 305.471 456.092 307.078Z" fill="url(#paint46_linear_58_14334)"/>
<path d="M449.07 307.8C448.523 307.939 448.015 308.204 447.587 308.573C447.159 308.942 446.823 309.405 446.604 309.925C446.391 310.268 446.25 310.649 446.187 311.046C446.124 311.444 446.141 311.85 446.237 312.241C446.438 312.743 446.82 313.15 447.307 313.385C447.794 313.619 448.351 313.662 448.868 313.506C449.366 313.317 449.801 312.991 450.123 312.565C450.446 312.14 450.642 311.633 450.69 311.102C450.775 310.027 450.449 308.96 449.779 308.116" fill="url(#paint47_linear_58_14334)"/>
<path d="M284.394 192.957C284.394 192.957 289.593 198.233 291.984 198.524C294.375 198.816 312.226 193.362 313.718 192.059C315.211 190.755 316.438 182.708 316.438 182.708L284.394 192.957Z" fill="url(#paint48_linear_58_14334)"/>
<path d="M284.394 192.957C284.394 192.957 289.593 198.233 291.984 198.524C294.375 198.816 312.226 193.362 313.718 192.059C315.211 190.755 316.438 182.708 316.438 182.708L284.394 192.957Z" fill="url(#paint49_linear_58_14334)"/>
<path d="M313.895 150.176C313.904 150.562 313.994 150.941 314.161 151.289C317.007 156.604 292.756 194.311 272.173 166.676C270.412 164.276 268.851 161.737 267.504 159.084C267.504 159.084 220.367 108.47 232.322 76.4187C244.214 44.5446 289.808 33.7765 314.363 65.0306C332.555 88.1105 313.086 140.458 313.895 150.176Z" fill="url(#paint50_linear_58_14334)"/>
<path d="M313.895 150.176C313.904 150.562 313.994 150.941 314.161 151.289C317.007 156.604 292.756 194.311 272.173 166.676C270.412 164.276 268.851 161.737 267.504 159.084C267.504 159.084 220.367 108.47 232.322 76.4187C244.214 44.5446 289.808 33.7765 314.363 65.0306C332.555 88.1105 313.086 140.458 313.895 150.176Z" fill="url(#paint51_linear_58_14334)"/>
<path d="M314.161 151.289C317.008 156.604 292.756 194.311 272.173 166.676C277.285 160.764 283.753 156.179 291.024 153.314C298.294 150.449 306.151 149.39 313.921 150.226C313.928 150.593 314.01 150.955 314.161 151.289Z" fill="url(#paint52_linear_58_14334)"/>
<path d="M276.739 176.229C277.099 176.596 277.349 177.056 277.461 177.558C277.463 178.045 277.351 178.527 277.132 178.962C276.711 180.19 276.679 181.518 277.039 182.765C277.399 184.013 278.133 185.119 279.143 185.934C276.992 187.2 277.524 190.819 279.535 192.324C281.547 193.83 284.279 193.843 286.784 193.59C296.697 192.848 306.334 189.987 315.046 185.2C318.374 183.353 321.903 180.658 322.08 176.849C321.168 176.034 320.082 175.437 318.905 175.103C319.601 173.585 320.17 171.433 318.74 170.522C318.272 170.231 317.69 170.168 317.21 169.89C316.681 169.486 316.281 168.938 316.056 168.311C315.832 167.685 315.793 167.007 315.945 166.359C316.25 165.062 316.319 163.721 316.147 162.399C315.895 161.581 315.361 160.878 314.642 160.415C313.922 159.952 313.061 159.759 312.213 159.868C304.761 165.866 296.361 172.193 286.822 171.636C282.42 171.345 269.744 167.22 276.739 176.229Z" fill="url(#paint53_linear_58_14334)"/>
<path d="M276.739 176.229C277.099 176.596 277.349 177.056 277.461 177.558C277.463 178.045 277.351 178.527 277.132 178.962C276.711 180.19 276.679 181.518 277.039 182.765C277.399 184.013 278.133 185.119 279.143 185.934C276.992 187.2 277.524 190.819 279.535 192.324C281.547 193.83 284.279 193.843 286.784 193.59C296.697 192.848 306.334 189.987 315.046 185.2C318.374 183.353 321.903 180.658 322.08 176.849C321.168 176.034 320.082 175.437 318.905 175.103C319.601 173.585 320.17 171.433 318.74 170.522C318.272 170.231 317.69 170.168 317.21 169.89C316.681 169.486 316.281 168.938 316.056 168.311C315.832 167.685 315.793 167.007 315.945 166.359C316.25 165.062 316.319 163.721 316.147 162.399C315.895 161.581 315.361 160.878 314.642 160.415C313.922 159.952 313.061 159.759 312.213 159.868C304.761 165.866 296.361 172.193 286.822 171.636C282.42 171.345 269.744 167.22 276.739 176.229Z" fill="url(#paint54_linear_58_14334)"/>
<path d="M304.357 166.499L301.245 166.676L300.334 151.112C298.626 121.718 295.526 115.771 293.831 114.835C293.705 114.771 293.553 114.683 293.135 114.835C292.602 115.149 292.147 115.582 291.807 116.1C293.079 117.191 294.176 118.471 295.058 119.896C296.754 122.692 296.994 125.312 295.729 127.083C295.389 127.673 294.874 128.142 294.255 128.426C293.636 128.709 292.944 128.793 292.275 128.665C289.846 128.057 288.315 124.565 287.911 121.566C287.697 120.122 287.748 118.652 288.062 117.226C287.101 116.607 285.964 116.319 284.824 116.404C283.369 116.568 282.294 117.909 281.648 120.288C281.388 121.219 281.189 122.166 281.054 123.123C284.697 124.869 287.923 129.146 287.379 131.98C287.312 132.585 287.058 133.154 286.652 133.608C286.246 134.062 285.709 134.377 285.115 134.511C284.286 134.705 283.42 134.675 282.606 134.424C281.792 134.173 281.06 133.709 280.485 133.081C279.51 132.157 277.752 129.842 277.739 125.413C276.715 125.413 275.538 126.02 274.703 128.462C272.173 135.675 286.253 160.235 291.87 169.08L289.239 170.75C287.088 167.372 268.34 137.383 271.755 127.45C273.274 123.021 276.031 122.224 278.005 122.313C278.163 121.344 278.374 120.385 278.638 119.44C279.903 114.847 282.433 113.557 284.381 113.304C286.083 113.134 287.794 113.502 289.277 114.354C289.893 113.453 290.706 112.704 291.655 112.165C292.214 111.827 292.852 111.642 293.505 111.628C294.158 111.615 294.803 111.774 295.375 112.089C298.196 113.632 301.7 119.44 303.484 150.922L304.357 166.499ZM280.889 126.653C280.943 128.214 281.553 129.704 282.61 130.854C282.798 131.082 283.036 131.264 283.306 131.385C283.576 131.506 283.87 131.562 284.166 131.55C284.419 130.5 282.926 128.121 280.889 126.653ZM290.871 119.554C290.849 120.079 290.874 120.604 290.947 121.123C291.301 123.793 292.478 125.451 292.946 125.628C292.946 125.628 293.047 125.514 293.199 125.312C293.679 124.641 293.363 123.173 292.389 121.516C291.946 120.815 291.438 120.159 290.871 119.554Z" fill="white"/>
<defs>
<linearGradient id="paint0_linear_58_14334" x1="406.511" y1="0" x2="406.511" y2="637.006" gradientUnits="userSpaceOnUse">
<stop stop-color="#FF006B"/>
<stop offset="1" stop-color="#89007B"/>
</linearGradient>
<linearGradient id="paint1_linear_58_14334" x1="266.515" y1="22.8285" x2="266.515" y2="264.102" gradientUnits="userSpaceOnUse">
<stop stop-color="#FF006B"/>
<stop offset="1" stop-color="#89007B"/>
</linearGradient>
<linearGradient id="paint2_linear_58_14334" x1="298.183" y1="203.485" x2="101.795" y2="-130.709" gradientUnits="userSpaceOnUse">
<stop stop-color="#010101" stop-opacity="0"/>
<stop offset="0.54" stop-color="#010101" stop-opacity="0.54"/>
<stop offset="0.95" stop-color="#010101"/>
</linearGradient>
<linearGradient id="paint3_linear_58_14334" x1="218.128" y1="30.0942" x2="218.128" y2="53.1315" gradientUnits="userSpaceOnUse">
<stop stop-color="#FF006B"/>
<stop offset="1" stop-color="#89007B"/>
</linearGradient>
<linearGradient id="paint4_linear_58_14334" x1="131.63" y1="176.256" x2="131.63" y2="198.776" gradientUnits="userSpaceOnUse">
<stop stop-color="#FF006B"/>
<stop offset="1" stop-color="#89007B"/>
</linearGradient>
<linearGradient id="paint5_linear_58_14334" x1="178.672" y1="29.3238" x2="178.672" y2="47.9979" gradientUnits="userSpaceOnUse">
<stop stop-color="#FF006B"/>
<stop offset="1" stop-color="#89007B"/>
</linearGradient>
<linearGradient id="paint6_linear_58_14334" x1="126.156" y1="94.3552" x2="126.156" y2="107.26" gradientUnits="userSpaceOnUse">
<stop stop-color="#FF006B"/>
<stop offset="1" stop-color="#89007B"/>
</linearGradient>
<linearGradient id="paint7_linear_58_14334" x1="183.418" y1="60.7625" x2="183.418" y2="69.4899" gradientUnits="userSpaceOnUse">
<stop stop-color="#FF006B"/>
<stop offset="1" stop-color="#89007B"/>
</linearGradient>
<linearGradient id="paint8_linear_58_14334" x1="468.609" y1="312.17" x2="468.609" y2="571.233" gradientUnits="userSpaceOnUse">
<stop stop-color="#FF006B"/>
<stop offset="1" stop-color="#89007B"/>
</linearGradient>
<linearGradient id="paint9_linear_58_14334" x1="383.945" y1="272.072" x2="383.945" y2="574.803" gradientUnits="userSpaceOnUse">
<stop stop-color="#FF006B"/>
<stop offset="1" stop-color="#89007B"/>
</linearGradient>
<linearGradient id="paint10_linear_58_14334" x1="324.092" y1="561.83" x2="541.824" y2="72.7943" gradientUnits="userSpaceOnUse">
<stop stop-color="#010101" stop-opacity="0"/>
<stop offset="0.95" stop-color="#010101"/>
</linearGradient>
<linearGradient id="paint11_linear_58_14334" x1="381.51" y1="251.199" x2="381.51" y2="553.929" gradientUnits="userSpaceOnUse">
<stop stop-color="#FF006B"/>
<stop offset="1" stop-color="#89007B"/>
</linearGradient>
<linearGradient id="paint12_linear_58_14334" x1="16189.2" y1="6081.92" x2="16480.9" y2="26672.4" gradientUnits="userSpaceOnUse">
<stop stop-color="#010101" stop-opacity="0"/>
<stop offset="0.95" stop-color="#010101"/>
</linearGradient>
<linearGradient id="paint13_linear_58_14334" x1="25208.5" y1="5926.03" x2="25500.2" y2="26517.6" gradientUnits="userSpaceOnUse">
<stop stop-color="#010101" stop-opacity="0"/>
<stop offset="0.95" stop-color="#010101"/>
</linearGradient>
<linearGradient id="paint14_linear_58_14334" x1="22939.7" y1="6017.52" x2="23231.5" y2="26608" gradientUnits="userSpaceOnUse">
<stop stop-color="#010101" stop-opacity="0"/>
<stop offset="0.95" stop-color="#010101"/>
</linearGradient>
<linearGradient id="paint15_linear_58_14334" x1="32787.2" y1="5852.78" x2="33078.7" y2="26443.2" gradientUnits="userSpaceOnUse">
<stop stop-color="#010101" stop-opacity="0"/>
<stop offset="0.95" stop-color="#010101"/>
</linearGradient>
<linearGradient id="paint16_linear_58_14334" x1="38690.3" y1="5824.68" x2="38981.8" y2="26410" gradientUnits="userSpaceOnUse">
<stop stop-color="#010101" stop-opacity="0"/>
<stop offset="0.95" stop-color="#010101"/>
</linearGradient>
<linearGradient id="paint17_linear_58_14334" x1="35879.7" y1="5938.87" x2="36171.5" y2="26529.4" gradientUnits="userSpaceOnUse">
<stop stop-color="#010101" stop-opacity="0"/>
<stop offset="0.95" stop-color="#010101"/>
</linearGradient>
<linearGradient id="paint18_linear_58_14334" x1="30486.9" y1="5944.83" x2="30778.6" y2="26537.9" gradientUnits="userSpaceOnUse">
<stop stop-color="#010101" stop-opacity="0"/>
<stop offset="0.95" stop-color="#010101"/>
</linearGradient>
<linearGradient id="paint19_linear_58_14334" x1="234.005" y1="313.986" x2="234.005" y2="346.506" gradientUnits="userSpaceOnUse">
<stop stop-color="#FF006B"/>
<stop offset="1" stop-color="#89007B"/>
</linearGradient>
<linearGradient id="paint20_linear_58_14334" x1="365.214" y1="284.133" x2="365.214" y2="316.631" gradientUnits="userSpaceOnUse">
<stop stop-color="#FF006B"/>
<stop offset="1" stop-color="#89007B"/>
</linearGradient>
<linearGradient id="paint21_linear_58_14334" x1="333.391" y1="343.803" x2="333.391" y2="376.317" gradientUnits="userSpaceOnUse">
<stop stop-color="#FF006B"/>
<stop offset="1" stop-color="#89007B"/>
</linearGradient>
<linearGradient id="paint22_linear_58_14334" x1="476.517" y1="316.476" x2="476.517" y2="348.998" gradientUnits="userSpaceOnUse">
<stop stop-color="#FF006B"/>
<stop offset="1" stop-color="#89007B"/>
</linearGradient>
<linearGradient id="paint23_linear_58_14334" x1="564.497" y1="372.344" x2="564.497" y2="404.914" gradientUnits="userSpaceOnUse">
<stop stop-color="#FF006B"/>
<stop offset="1" stop-color="#89007B"/>
</linearGradient>
<linearGradient id="paint24_linear_58_14334" x1="525.368" y1="446.177" x2="525.368" y2="478.747" gradientUnits="userSpaceOnUse">
<stop stop-color="#FF006B"/>
<stop offset="1" stop-color="#89007B"/>
</linearGradient>
<linearGradient id="paint25_linear_58_14334" x1="444.693" y1="376.112" x2="444.693" y2="408.622" gradientUnits="userSpaceOnUse">
<stop stop-color="#FF006B"/>
<stop offset="1" stop-color="#89007B"/>
</linearGradient>
<linearGradient id="paint26_linear_58_14334" x1="15490.8" y1="3957.82" x2="15674.2" y2="25376.2" gradientUnits="userSpaceOnUse">
<stop stop-color="#010101" stop-opacity="0"/>
<stop offset="0.95" stop-color="#010101"/>
</linearGradient>
<linearGradient id="paint27_linear_58_14334" x1="24113.1" y1="3852.76" x2="24296.4" y2="25256.9" gradientUnits="userSpaceOnUse">
<stop stop-color="#010101" stop-opacity="0"/>
<stop offset="0.95" stop-color="#010101"/>
</linearGradient>
<linearGradient id="paint28_linear_58_14334" x1="21952.5" y1="3932.4" x2="22135.9" y2="25347.1" gradientUnits="userSpaceOnUse">
<stop stop-color="#010101" stop-opacity="0"/>
<stop offset="0.95" stop-color="#010101"/>
</linearGradient>
<linearGradient id="paint29_linear_58_14334" x1="31349.7" y1="3826.6" x2="31533.2" y2="25246.9" gradientUnits="userSpaceOnUse">
<stop stop-color="#010101" stop-opacity="0"/>
<stop offset="0.95" stop-color="#010101"/>
</linearGradient>
<linearGradient id="paint30_linear_58_14334" x1="37056.9" y1="3839.76" x2="37240.8" y2="25291.2" gradientUnits="userSpaceOnUse">
<stop stop-color="#010101" stop-opacity="0"/>
<stop offset="0.95" stop-color="#010101"/>
</linearGradient>
<linearGradient id="paint31_linear_58_14334" x1="34392.8" y1="3936.1" x2="34576.7" y2="25387.8" gradientUnits="userSpaceOnUse">
<stop stop-color="#010101" stop-opacity="0"/>
<stop offset="0.95" stop-color="#010101"/>
</linearGradient>
<linearGradient id="paint32_linear_58_14334" x1="29190.3" y1="3903.1" x2="29373.6" y2="25315.2" gradientUnits="userSpaceOnUse">
<stop stop-color="#010101" stop-opacity="0"/>
<stop offset="0.95" stop-color="#010101"/>
</linearGradient>
<linearGradient id="paint33_linear_58_14334" x1="661.125" y1="42.0167" x2="661.125" y2="256.604" gradientUnits="userSpaceOnUse">
<stop stop-color="#FF006B"/>
<stop offset="1" stop-color="#89007B"/>
</linearGradient>
<linearGradient id="paint34_linear_58_14334" x1="711.749" y1="142.007" x2="711.749" y2="237.815" gradientUnits="userSpaceOnUse">
<stop stop-color="#FF006B"/>
<stop offset="1" stop-color="#89007B"/>
</linearGradient>
<linearGradient id="paint35_linear_58_14334" x1="685.82" y1="146.089" x2="685.82" y2="198.579" gradientUnits="userSpaceOnUse">
<stop stop-color="#FF006B"/>
<stop offset="1" stop-color="#89007B"/>
</linearGradient>
<linearGradient id="paint36_linear_58_14334" x1="668.607" y1="167.599" x2="668.607" y2="203.923" gradientUnits="userSpaceOnUse">
<stop stop-color="#FF006B"/>
<stop offset="1" stop-color="#89007B"/>
</linearGradient>
<linearGradient id="paint37_linear_58_14334" x1="4561.53" y1="5770.06" x2="4843.07" y2="5776.84" gradientUnits="userSpaceOnUse">
<stop stop-color="#010101" stop-opacity="0"/>
<stop offset="0.95" stop-color="#010101"/>
</linearGradient>
<linearGradient id="paint38_linear_58_14334" x1="658.803" y1="361.126" x2="658.803" y2="372.992" gradientUnits="userSpaceOnUse">
<stop stop-color="#FF006B"/>
<stop offset="1" stop-color="#89007B"/>
</linearGradient>
<linearGradient id="paint39_linear_58_14334" x1="732.284" y1="363.451" x2="732.284" y2="375.27" gradientUnits="userSpaceOnUse">
<stop stop-color="#FF006B"/>
<stop offset="1" stop-color="#89007B"/>
</linearGradient>
<linearGradient id="paint40_linear_58_14334" x1="741.942" y1="95.8079" x2="741.942" y2="174.787" gradientUnits="userSpaceOnUse">
<stop stop-color="#FF006B"/>
<stop offset="1" stop-color="#89007B"/>
</linearGradient>
<linearGradient id="paint41_linear_58_14334" x1="525.252" y1="223.123" x2="525.252" y2="264.418" gradientUnits="userSpaceOnUse">
<stop stop-color="#FF006B"/>
<stop offset="1" stop-color="#89007B"/>
</linearGradient>
<linearGradient id="paint42_linear_58_14334" x1="18158.8" y1="8328.98" x2="19639.3" y2="10108.1" gradientUnits="userSpaceOnUse">
<stop stop-color="#010101" stop-opacity="0"/>
<stop offset="0.95" stop-color="#010101"/>
</linearGradient>
<linearGradient id="paint43_linear_58_14334" x1="468.333" y1="269.184" x2="468.333" y2="303.778" gradientUnits="userSpaceOnUse">
<stop stop-color="#FF006B"/>
<stop offset="1" stop-color="#89007B"/>
</linearGradient>
<linearGradient id="paint44_linear_58_14334" x1="14992.7" y1="7911.07" x2="16376.1" y2="9606.49" gradientUnits="userSpaceOnUse">
<stop stop-color="#010101" stop-opacity="0"/>
<stop offset="0.95" stop-color="#010101"/>
</linearGradient>
<linearGradient id="paint45_linear_58_14334" x1="10813.9" y1="6582.82" x2="12626.7" y2="9421.64" gradientUnits="userSpaceOnUse">
<stop stop-color="white" stop-opacity="0"/>
<stop offset="0.95" stop-color="white"/>
</linearGradient>
<linearGradient id="paint46_linear_58_14334" x1="3858.28" y1="5690.3" x2="3927.4" y2="5690.3" gradientUnits="userSpaceOnUse">
<stop stop-color="#010101" stop-opacity="0"/>
<stop offset="0.95" stop-color="#010101"/>
</linearGradient>
<linearGradient id="paint47_linear_58_14334" x1="2079.16" y1="1772.77" x2="2095.64" y2="1772.77" gradientUnits="userSpaceOnUse">
<stop stop-color="#010101" stop-opacity="0"/>
<stop offset="0.95" stop-color="#010101"/>
</linearGradient>
<linearGradient id="paint48_linear_58_14334" x1="300.416" y1="182.708" x2="300.416" y2="198.536" gradientUnits="userSpaceOnUse">
<stop stop-color="#FF006B"/>
<stop offset="1" stop-color="#89007B"/>
</linearGradient>
<linearGradient id="paint49_linear_58_14334" x1="10677.2" y1="275.263" x2="11491.3" y2="23.7671" gradientUnits="userSpaceOnUse">
<stop stop-color="#010101" stop-opacity="0"/>
<stop offset="0.95" stop-color="#010101"/>
</linearGradient>
<linearGradient id="paint50_linear_58_14334" x1="276.268" y1="46.3361" x2="276.268" y2="176.699" gradientUnits="userSpaceOnUse">
<stop stop-color="#FF006B"/>
<stop offset="1" stop-color="#89007B"/>
</linearGradient>
<linearGradient id="paint51_linear_58_14334" x1="31161.4" y1="9146.74" x2="37480.3" y2="7194.72" gradientUnits="userSpaceOnUse">
<stop stop-color="white" stop-opacity="0"/>
<stop offset="0.95" stop-color="white"/>
</linearGradient>
<linearGradient id="paint52_linear_58_14334" x1="14640.3" y1="438.67" x2="15278.4" y2="1816.8" gradientUnits="userSpaceOnUse">
<stop stop-color="#010101" stop-opacity="0"/>
<stop offset="0.95" stop-color="#010101"/>
</linearGradient>
<linearGradient id="paint53_linear_58_14334" x1="298.378" y1="159.838" x2="298.378" y2="193.713" gradientUnits="userSpaceOnUse">
<stop stop-color="#FF006B"/>
<stop offset="1" stop-color="#89007B"/>
</linearGradient>
<linearGradient id="paint54_linear_58_14334" x1="16611.4" y1="2078.72" x2="17168.5" y2="-214.344" gradientUnits="userSpaceOnUse">
<stop stop-color="#010101" stop-opacity="0"/>
<stop offset="0.95" stop-color="#010101"/>
</linearGradient>
</defs>
</svg>
